<?xml version="1.0" standalone="no"?>
<!DOCTYPE svg PUBLIC "-//W3C//DTD SVG 20010904//EN"
 "http://www.w3.org/TR/2001/REC-SVG-20010904/DTD/svg10.dtd">
<svg version="1.0" xmlns="http://www.w3.org/2000/svg"
 width="512.000000pt" height="512.000000pt" viewBox="0 0 512.000000 512.000000"
 preserveAspectRatio="xMidYMid meet">
<metadata>
Created by potrace 1.14, written by Peter Selinger 2001-2017
</metadata>
<g transform="translate(0.000000,512.000000) scale(0.100000,-0.100000)"
fill="#000000" stroke="none">
<path d="M3855 5056 c-22 -6 -105 -56 -184 -111 -79 -55 -153 -107 -165 -115
-11 -8 -115 -79 -230 -159 -156 -107 -219 -145 -245 -148 -56 -5 -115 -31
-145 -62 -53 -55 -67 -152 -33 -220 15 -30 14 -36 -30 -164 l-46 -132 -56 5
c-68 6 -261 4 -356 -3 -303 -25 -605 -120 -792 -248 -103 -72 -203 -199 -217
-279 -3 -14 -5 -100 -5 -192 l-1 -168 -81 -82 c-103 -106 -229 -273 -308 -410
-33 -58 -61 -109 -61 -111 0 -3 -15 -38 -34 -79 -81 -175 -133 -379 -155 -608
-8 -80 -6 -298 4 -359 15 -96 28 -162 46 -226 11 -38 22 -74 23 -80 4 -15 17
-45 42 -103 13 -29 24 -55 24 -58 0 -14 89 -156 139 -224 244 -327 671 -562
1155 -636 21 -3 48 -8 60 -10 129 -25 582 -25 717 1 13 3 41 7 64 11 130 18
369 84 475 131 141 62 317 162 394 223 322 257 489 551 548 965 18 124 15 369
-6 480 -2 11 -7 40 -11 65 -4 25 -9 52 -10 60 -8 43 -59 216 -75 255 -4 11
-18 44 -30 74 -103 253 -246 466 -447 665 l-51 51 -4 190 c-3 188 -3 191 -33
249 -55 109 -181 216 -343 292 -74 34 -82 41 -77 61 12 50 25 73 42 74 10 0
25 2 33 4 8 2 26 6 39 9 35 8 93 57 114 97 15 27 17 49 13 106 l-4 72 206 143
c264 183 240 166 315 217 83 56 102 87 102 171 0 65 0 65 -75 172 -97 138
-153 170 -245 144z"/>
</g>
</svg>
